HIERARCHY
ROOT Joint1
{
	OFFSET 0.000000 0.000000 0.000000
	CHANNELS 6 Xposition Yposition Zposition Xrotation Yrotation Zrotation
	JOINT Joint2
	{
		OFFSET -0.000000 0.000000 1.456275
		CHANNELS 6 Xposition Yposition Zposition Xrotation Yrotation Zrotation
		JOINT Joint3
		{
			OFFSET -0.000000 0.000002 1.471446
			CHANNELS 6 Xposition Yposition Zposition Xrotation Yrotation Zrotation
			JOINT Joint4
			{
				OFFSET 0.625745 0.000000 0.917755
				CHANNELS 6 Xposition Yposition Zposition Xrotation Yrotation Zrotation
				JOINT Joint5
				{
					OFFSET -0.629534 0.000001 0.940221
					CHANNELS 6 Xposition Yposition Zposition Xrotation Yrotation Zrotation
					JOINT Joint6
					{
						OFFSET -0.000001 0.113772 1.960660
						CHANNELS 6 Xposition Yposition Zposition Xrotation Yrotation Zrotation
						JOINT Joint7
						{
							OFFSET -0.669733 -0.113771 0.388340
							CHANNELS 6 Xposition Yposition Zposition Xrotation Yrotation Zrotation
							End Site
							{
								OFFSET 0.005509 0.005509 0.438980
							}
						}
					}
				}
			}
		}
	}
}
MOTION
Frames: 17
Frame Time: 0.041667
0.000000 0.000000 0.000000 -0.000000 1.019410 120.988632 -0.000000 -0.000000 1.456275 0.000005 98.920380 0.000009 -0.000001 0.000002 1.471446 -0.000007 -1.133463 -138.881938 0.625745 0.000000 0.917755 -0.000001 113.367685 -0.000000 -0.629534 0.000001 0.940221 0.000001 1.709734 -10.450105 -0.000001 0.113772 1.960660 -88.303889 39.376123 -0.000001 -0.669733 -0.113771 0.388340 0.128569 1.967493 10.068046 
0.000000 0.000000 0.000000 -0.000000 1.019410 120.887901 -0.000000 0.000000 1.456275 0.000010 98.800571 0.000011 -0.000000 0.000002 1.471446 -0.000009 -1.133464 -138.766344 0.625745 0.000000 0.917755 0.000014 113.385716 -0.000000 -0.629534 0.000001 0.940221 -0.000001 1.709738 -10.441420 -0.000001 0.113772 1.960661 -88.303889 39.418248 -0.000002 -0.669734 -0.113771 0.388340 0.129625 1.969000 10.171942 
0.000000 0.000000 0.000000 -0.000000 1.019410 120.721954 -0.000000 -0.000000 1.456275 0.000016 98.603227 0.000004 -0.000000 0.000002 1.471446 -0.000009 -1.133464 -138.575960 0.625745 0.000000 0.917755 0.000012 113.415421 -0.000002 -0.629534 0.000001 0.940221 -0.000004 1.709737 -10.427117 -0.000001 0.113772 1.960660 -88.303889 39.487629 -0.000003 -0.669733 -0.113771 0.388340 0.131353 1.971500 10.343078 
0.000000 0.000000 0.000000 -0.000000 1.019410 120.492446 -0.000000 0.000000 1.456275 -0.000014 98.330279 -0.000001 -0.000000 0.000002 1.471446 -0.000007 -1.133463 -138.312574 0.625745 0.000001 0.917755 0.000013 113.456484 -0.000002 -0.629534 0.000001 0.940221 0.000002 1.709735 -10.407333 -0.000001 0.113772 1.960660 -88.303882 39.583610 -0.000002 -0.669734 -0.113771 0.388340 0.133741 1.974963 10.579808 
0.000000 0.000000 0.000000 -0.000000 1.019410 120.200948 -0.000000 0.000000 1.456275 -0.000000 97.983606 -0.000019 -0.000000 0.000002 1.471446 -0.000010 -1.133464 -137.978086 0.625744 0.000000 0.917755 0.000000 113.508653 -0.000002 -0.629534 0.000001 0.940221 -0.000001 1.709735 -10.382203 -0.000001 0.113772 1.960661 -88.303889 39.705498 -0.000002 -0.669733 -0.113771 0.388340 0.136745 1.979375 10.880459 
0.000000 0.000000 0.000000 -0.000000 1.019410 119.849083 -0.000000 0.000000 1.456275 -0.000014 97.565120 -0.000014 -0.000000 0.000002 1.471446 -0.000014 -1.133463 -137.574299 0.625745 0.000000 0.917755 0.000017 113.571634 -0.000002 -0.629534 0.000001 0.940221 -0.000002 1.709737 -10.351869 -0.000001 0.113772 1.960660 -88.303882 39.852634 -0.000003 -0.669733 -0.113771 0.388340 0.140348 1.984721 11.243382 
0.000000 0.000000 0.000000 -0.000000 1.019410 119.438453 -0.000000 -0.000000 1.456275 0.000005 97.076755 0.000000 -0.000000 0.000002 1.471445 -0.000008 -1.133463 -137.103084 0.625745 0.000001 0.917755 0.000002 113.645127 0.000002 -0.629534 0.000001 0.940221 0.000000 1.709736 -10.316471 -0.000001 0.113772 1.960660 -88.303882 40.024348 -0.000002 -0.669733 -0.113771 0.388340 0.144505 1.990989 11.666928 
0.000000 0.000000 0.000000 -0.000000 1.019410 118.970639 -0.000000 0.000000 1.456275 0.000006 96.520395 -0.000006 -0.000000 0.000002 1.471446 -0.000011 -1.133463 -136.566286 0.625745 0.000001 0.917756 0.000008 113.728845 0.000005 -0.629534 0.000001 0.940221 -0.000002 1.709737 -10.276143 -0.000001 0.113772 1.960661 -88.303882 40.219968 -0.000002 -0.669733 -0.113772 0.388340 0.149186 1.998163 12.149424 
0.000000 0.000000 0.000000 -0.000000 1.019410 118.447269 -0.000000 -0.000000 1.456275 0.000001 95.897966 0.000006 -0.000000 0.000002 1.471446 -0.000009 -1.133463 -135.965707 0.625745 0.000000 0.917755 0.000004 113.822514 -0.000004 -0.629534 0.000001 0.940221 -0.000003 1.709735 -10.231029 -0.000000 0.113772 1.960660 -88.303882 40.438825 -0.000002 -0.669733 -0.113771 0.388340 0.154347 2.006238 12.689235 
0.000000 0.000000 0.000000 -0.000000 1.019410 117.869954 -0.000000 0.000000 1.456275 0.000012 95.211375 -0.000000 -0.000000 0.000002 1.471446 -0.000008 -1.133464 -135.303261 0.625745 0.000000 0.917755 0.000006 113.925820 -0.000005 -0.629533 0.000001 0.940221 -0.000002 1.709736 -10.181261 -0.000001 0.113772 1.960661 -88.303889 40.680234 -0.000002 -0.669733 -0.113771 0.388340 0.159953 2.015205 13.284689 
0.000000 0.000000 0.000000 -0.000000 1.019410 117.240293 -0.000000 0.000000 1.456275 -0.000011 94.462527 0.000005 -0.000000 0.000002 1.471446 -0.000011 -1.133464 -134.580709 0.625745 0.000000 0.917755 0.000005 114.038519 0.000004 -0.629534 0.000001 0.940221 -0.000000 1.709736 -10.126983 -0.000001 0.113772 1.960660 -88.303889 40.943528 -0.000002 -0.669733 -0.113771 0.388340 0.165964 2.025044 13.934140 
0.000000 0.000000 0.000000 -0.000000 1.019410 116.560648 -0.000000 0.000000 1.456275 0.000026 93.654243 -0.000005 -0.000000 0.000002 1.471446 -0.000010 -1.133463 -133.800824 0.625745 0.000000 0.917755 0.000018 114.160144 -0.000003 -0.629533 0.000001 0.940221 0.000002 1.709737 -10.068396 -0.000001 0.113772 1.960660 -88.303889 41.227729 -0.000003 -0.669733 -0.113771 0.388340 0.172326 2.035745 14.635145 
0.000000 0.000000 0.000000 -0.000000 1.019410 115.836443 -0.000000 0.000000 1.456275 -0.000025 92.792942 -0.000003 -0.000000 0.000002 1.471446 -0.000012 -1.133464 -132.969781 0.625745 0.000000 0.917755 0.000010 114.289760 0.000001 -0.629533 0.000001 0.940221 -0.000004 1.709737 -10.005967 -0.000001 0.113772 1.960660 -88.303882 41.530562 -0.000002 -0.669733 -0.113771 0.388340 0.178959 2.047225 15.382126 
0.000000 0.000000 0.000000 -0.000000 1.019410 115.073825 -0.000000 0.000000 1.456275 0.000014 91.885968 -0.000011 -0.000000 0.000002 1.471446 -0.000011 -1.133464 -132.094670 0.625745 0.000000 0.917755 -0.000000 114.426248 -0.000001 -0.629534 0.000001 0.940221 -0.000001 1.709738 -9.940225 -0.000001 0.113772 1.960661 -88.303889 41.849464 -0.000002 -0.669733 -0.113771 0.388339 0.185783 2.059418 16.168724 
0.000000 0.000000 0.000000 -0.000000 1.019410 114.278962 -0.000000 0.000000 1.456275 0.000019 90.940649 -0.000020 -0.000000 0.000002 1.471446 -0.000010 -1.133464 -131.182567 0.625745 0.000000 0.917755 0.000005 114.568493 -0.000000 -0.629534 0.000001 0.940221 -0.000000 1.709737 -9.871707 -0.000001 0.113772 1.960660 -88.303889 42.181838 -0.000001 -0.669733 -0.113771 0.388340 0.192707 2.072216 16.988581 
0.000000 0.000000 0.000000 -0.000000 1.019410 113.458028 -0.000000 0.000000 1.456275 0.001760 89.964328 -0.001274 -0.000000 0.000002 1.471446 -0.000011 -1.133464 -130.240547 0.625745 0.000000 0.917754 0.000011 114.715404 -0.000002 -0.629533 0.000001 0.940221 0.000004 1.709735 -9.800939 -0.000001 0.113772 1.960660 -88.303882 42.525116 -0.000001 -0.669733 -0.113771 0.388340 0.199681 2.085539 17.835333 
0.000000 0.000000 0.000000 -0.000000 1.019410 112.611549 -0.000000 0.000000 1.456275 -0.000064 88.957620 0.000037 -0.000000 0.000002 1.471446 -0.000007 -1.133464 -129.269198 0.625745 0.000000 0.917755 0.000012 114.866898 -0.000006 -0.629534 0.000001 0.940221 -0.000005 1.709737 -9.727965 -0.000000 0.113773 1.960660 -88.303889 42.879087 -0.000000 -0.669733 -0.113771 0.388340 0.206652 2.099379 18.708452 
